<svg xmlns="http://www.w3.org/2000/svg" width="555.903" height="189" viewBox="0 0 555.903 189">
  <g id="Group_1" data-name="Group 1" transform="translate(-822 510)">
    <g id="Group_8" data-name="Group 8" transform="translate(337 -1167)">
      <circle id="Ellipse_1" data-name="Ellipse 1" cx="94.5" cy="94.5" r="94.5" transform="translate(485 657)" fill="#238781"/>
      <path id="Path_2" data-name="Path 2" d="M52.59-11.03H67.067l-2.1-6.19L40.735-85.1H26.362L1.393-17.22-.6-11.03H14.507L22.585-33.8H44.512Zm-26.752-32.1L33.6-68.207l7.344,25.074ZM84.9-65.479H71.788V9.952L86.266,8.483V-17.745c3.357,5.35,8.5,7.763,16.051,7.763h.315c15.841-.1,24.234-13.533,24.234-29.06,0-14.163-8.078-28.536-24.759-28.536-7.239,0-12.9,2.413-16.156,9.337Zm15,44.8c-6.924,0-13.743-3.882-13.743-17.94,0-13.848,6.819-18.254,13.324-18.254,6.4,0,13.429,3.672,13.429,18.254C112.913-25.088,106.409-20.682,99.9-20.682Zm60.324-46.9c-17.73,0-26.857,12.065-26.857,28.955,0,16.576,9.127,28.641,26.857,28.641s26.857-12.065,26.857-28.641C187.085-55.512,177.958-67.577,160.228-67.577Zm0,47c-7.763,0-12.9-6.19-12.9-18.045,0-12.17,5.246-18.254,12.9-18.254s13.009,6.085,13.009,18.254C173.237-26.767,167.991-20.577,160.228-20.577ZM210.9-87.72l-14.478.944v52.455c0,13.953,2.623,23.92,19.094,23.92a38.376,38.376,0,0,0,7.554-.629l-.629-10.386a10.147,10.147,0,0,1-3.042.21c-7.763,0-8.5-2.833-8.5-11.121Zm33.571,0-14.478.944v52.455c0,13.953,2.623,23.92,19.094,23.92a38.376,38.376,0,0,0,7.554-.629l-.629-10.386a10.148,10.148,0,0,1-3.042.21c-7.763,0-8.5-2.833-8.5-11.121Zm43.118,20.143c-17.73,0-26.857,12.065-26.857,28.955,0,16.576,9.127,28.641,26.857,28.641s26.857-12.065,26.857-28.641C314.447-55.512,305.319-67.577,287.589-67.577Zm0,47c-7.763,0-12.9-6.19-12.9-18.045,0-12.17,5.246-18.254,12.9-18.254S300.6-50.791,300.6-38.622C300.6-26.767,295.353-20.577,287.589-20.577Z" transform="translate(726.457 802.412)" fill="#404346"/>
      <rect id="Rectangle_1" data-name="Rectangle 1" width="50" height="69" rx="6" transform="translate(526 720)" fill="#54e0a3"/>
      <rect id="Rectangle_2" data-name="Rectangle 2" width="50" height="103" rx="6" transform="translate(583 700)" fill="#54d7e0"/>
    </g>
    <path id="Path_1" data-name="Path 1" d="M884.971-413.018s36.855,27.938,73.115,0" transform="translate(-5.445 -1.264)" fill="none" stroke="#fff" stroke-width="7"/>
  </g>
</svg>
